<svg width="250" height="181" viewBox="0 0 250 181" fill="none" xmlns="http://www.w3.org/2000/svg">
<path d="M88.4307 31.1348C87.1852 38.0639 87.9526 45.2105 90.6504 51.7236L90.917 52.3506C93.7311 58.8039 98.3405 64.3187 104.202 68.2354L104.772 68.6094C110.697 72.4115 117.594 74.4365 124.644 74.4365C127.572 74.4365 130.381 73.9968 133.099 73.3525L207.668 179.833L207.754 179.956L207.877 179.87L207.878 179.869C207.879 179.869 207.88 179.868 207.881 179.867C207.884 179.865 207.888 179.862 207.894 179.858C207.904 179.851 207.921 179.839 207.941 179.824C207.983 179.794 208.045 179.749 208.124 179.689C208.283 179.57 208.512 179.393 208.799 179.16C209.373 178.694 210.175 178.005 211.088 177.109C212.914 175.318 215.189 172.698 216.982 169.387C218.776 166.075 220.09 162.069 219.985 157.507C219.881 152.944 218.358 147.836 214.497 142.323L214.495 142.319L184.122 101.423L203.773 73.3525C206.492 74.0064 209.301 74.4365 212.229 74.4365C219.279 74.4365 226.176 72.4116 232.101 68.6094L232.671 68.2354C238.532 64.3188 243.141 58.8037 245.955 52.3506L246.222 51.7236C248.919 45.2105 249.688 38.0639 248.442 31.1348L248.315 30.4648C246.94 23.5509 243.609 17.1826 238.724 12.1133L238.246 11.627C233.261 6.64222 226.953 3.19743 220.075 1.69629L219.407 1.55664C212.27 0.137057 204.872 0.86571 198.149 3.65039L197.521 3.91699C191.068 6.73112 185.553 11.3407 181.637 17.2021L181.264 17.7725C177.462 23.6975 175.437 30.594 175.437 37.6436L175.448 38.5029C175.676 47.3262 179.091 55.7785 185.074 62.2891L168.442 80.3262L151.797 62.2988C157.779 55.7832 161.194 47.3291 161.424 38.5029L161.437 37.6436C161.437 30.594 159.411 23.6975 155.609 17.7725L155.235 17.2021C151.319 11.3405 145.804 6.73109 139.351 3.91699L138.724 3.65039C132.001 0.865599 124.602 0.136966 117.465 1.55664L116.798 1.69629C109.92 3.19739 103.612 6.64213 98.627 11.627C93.4814 16.7725 89.9764 23.3278 88.5566 30.4648L88.4307 31.1348ZM194.505 37.6436C194.505 32.9427 196.372 28.4344 199.696 25.1104C203.02 21.7863 207.529 19.9189 212.229 19.9189C216.93 19.919 221.439 21.7863 224.763 25.1104L225.07 25.4248C228.202 28.7157 229.954 33.0896 229.954 37.6436C229.954 42.3443 228.087 46.8528 224.763 50.1768L224.447 50.4834C221.156 53.615 216.783 55.3682 212.229 55.3682C207.676 55.3682 203.303 53.615 200.012 50.4834L199.696 50.1768C196.372 46.8528 194.505 42.3443 194.505 37.6436ZM116.897 157.507C116.793 162.069 118.107 166.075 119.9 169.387C121.694 172.698 123.969 175.318 125.795 177.109C126.708 178.005 127.51 178.694 128.084 179.16C128.371 179.393 128.6 179.57 128.759 179.689C128.838 179.749 128.9 179.794 128.941 179.824C128.962 179.839 128.978 179.851 128.989 179.858C128.995 179.862 128.999 179.865 129.002 179.867C129.003 179.868 129.004 179.869 129.005 179.869L129.006 179.87L129.129 179.956L129.215 179.833L161.191 134.044L161.251 133.958L161.19 133.872L144.825 110.496L144.702 110.32L144.58 110.496L122.385 142.323C118.524 147.836 117.002 152.944 116.897 157.507ZM106.919 37.6436C106.919 35.316 107.377 33.0108 108.268 30.8604C109.158 28.7099 110.464 26.7562 112.11 25.1104C113.653 23.5674 115.466 22.3229 117.459 21.4395L117.86 21.2676C120.011 20.3769 122.316 19.9189 124.644 19.9189C126.971 19.919 129.276 20.377 131.426 21.2676L131.827 21.4395C133.82 22.3229 135.634 23.5673 137.177 25.1104L137.481 25.4219C138.984 27.0006 140.183 28.8443 141.019 30.8604L141.181 31.2656C141.965 33.2992 142.368 35.4615 142.368 37.6436C142.368 42.3443 140.501 46.8528 137.177 50.1768L136.861 50.4834C133.57 53.615 129.198 55.3681 124.644 55.3682C120.089 55.3682 115.716 53.6152 112.425 50.4834L112.11 50.1768C108.786 46.8528 106.919 42.3443 106.919 37.6436Z" fill="#27496D" stroke="#27496D" stroke-width="0.3"/>
<path d="M36.6432 73.2865C29.3959 73.2865 22.3113 71.1374 16.2854 67.111C10.2594 63.0845 5.56275 57.3617 2.78932 50.666C0.0158774 43.9703 -0.709781 36.6026 0.704105 29.4945C2.11799 22.3864 5.60792 15.8572 10.7326 10.7326C15.8572 5.60792 22.3864 2.11799 29.4945 0.704106C36.6026 -0.709781 43.9703 0.0158765 50.666 2.78931C57.3617 5.56275 63.0845 10.2594 67.111 16.2854C71.1374 22.3113 73.2864 29.3959 73.2864 36.6432C73.2634 45.7871 69.8039 54.5883 63.5944 61.3004L80.347 79.4433L80.4363 79.5625L80.4661 79.5228L97.2783 61.2905C91.0669 54.5835 87.6069 45.7846 87.5862 36.6432C87.5862 29.3959 89.7353 22.3113 93.7617 16.2854C97.7881 10.2594 103.511 5.56275 110.207 2.78931C116.902 0.0158765 124.27 -0.709781 131.378 0.704106C138.486 2.11799 145.015 5.60792 150.14 10.7326C155.265 15.8572 158.755 22.3864 160.169 29.4945C161.582 36.6026 160.857 43.9703 158.083 50.666C155.31 57.3617 150.613 63.0845 144.587 67.111C138.561 71.1374 131.477 73.2865 124.229 73.2865C121.28 73.2865 118.45 72.8495 115.709 72.1842L95.9377 100.426L126.374 141.409C141.757 163.375 119.791 178.747 119.791 178.747L45.1635 72.1842C42.4227 72.8396 39.5926 73.2865 36.6432 73.2865ZM54.518 36.6432C54.518 34.2959 54.0556 31.9715 53.1573 29.8029C52.259 27.6342 50.9424 25.6637 49.2826 24.0039C47.6228 22.3441 45.6523 21.0274 43.4836 20.1291C41.3149 19.2308 38.9906 18.7685 36.6432 18.7685C34.2959 18.7685 31.9715 19.2308 29.8029 20.1291C27.6342 21.0274 25.6637 22.3441 24.0039 24.0039C22.3441 25.6637 21.0274 27.6342 20.1291 29.8029C19.2308 31.9715 18.7685 34.2959 18.7685 36.6432C18.7685 41.3839 20.6517 45.9304 24.0039 49.2826C27.356 52.6347 31.9026 54.518 36.6432 54.518C41.3839 54.518 45.9304 52.6347 49.2826 49.2826C52.6347 45.9304 54.518 41.3839 54.518 36.6432ZM142.104 36.6432C142.104 31.9026 140.221 27.356 136.869 24.0039C133.517 20.6517 128.97 18.7685 124.229 18.7685C119.489 18.7685 114.942 20.6517 111.59 24.0039C108.238 27.356 106.355 31.9026 106.355 36.6432C106.355 41.3839 108.238 45.9304 111.59 49.2826C114.942 52.6347 119.489 54.518 124.229 54.518C128.97 54.518 133.517 52.6347 136.869 49.2826C140.221 45.9304 142.104 41.3839 142.104 36.6432ZM41.0921 178.747C41.0921 178.747 19.126 163.375 34.5082 141.409L56.7027 109.582L73.068 132.958L41.0921 178.747Z" fill="#00909E"/>
</svg>
